<?xml version="1.0" encoding="UTF-8" standalone="no"?>
<!-- Created with Inkscape (http://www.inkscape.org/) -->

<svg
   xmlns:dc="http://purl.org/dc/elements/1.1/"
   xmlns:cc="http://creativecommons.org/ns#"
   xmlns:rdf="http://www.w3.org/1999/02/22-rdf-syntax-ns#"
   xmlns:svg="http://www.w3.org/2000/svg"
   xmlns="http://www.w3.org/2000/svg"
   xmlns:sodipodi="http://sodipodi.sourceforge.net/DTD/sodipodi-0.dtd"
   xmlns:inkscape="http://www.inkscape.org/namespaces/inkscape"
   width="500"
   height="500"
   viewBox="0 0 132.29166 132.29167"
   version="1.1"
   id="svg8"
   inkscape:version="0.92.3 (2405546, 2018-03-11)"
   sodipodi:docname="icon.svg">
  <defs
     id="defs2">
    <inkscape:perspective
       sodipodi:type="inkscape:persp3d"
       inkscape:vp_x="0 : 66.145835 : 1"
       inkscape:vp_y="0 : 1000 : 0"
       inkscape:vp_z="132.29166 : 66.145835 : 1"
       inkscape:persp3d-origin="66.14583 : 44.097223 : 1"
       id="perspective22" />
  </defs>
  <sodipodi:namedview
     id="base"
     pagecolor="#ffffff"
     bordercolor="#666666"
     borderopacity="1.0"
     inkscape:pageopacity="0.0"
     inkscape:pageshadow="2"
     inkscape:zoom="1.5789531"
     inkscape:cx="324.9646"
     inkscape:cy="257.4662"
     inkscape:document-units="px"
     inkscape:current-layer="layer1"
     showgrid="true"
     units="px"
     inkscape:pagecheckerboard="true"
     inkscape:window-width="1853"
     inkscape:window-height="1025"
     inkscape:window-x="67"
     inkscape:window-y="27"
     inkscape:window-maximized="1">
    <inkscape:grid
       type="xygrid"
       id="grid12"
       spacingx="1.3229167"
       spacingy="1.3229167" />
  </sodipodi:namedview>
  <metadata
     id="metadata5">
    <rdf:RDF>
      <cc:Work
         rdf:about="">
        <dc:format>image/svg+xml</dc:format>
        <dc:type
           rdf:resource="http://purl.org/dc/dcmitype/StillImage" />
        <dc:title></dc:title>
      </cc:Work>
    </rdf:RDF>
  </metadata>
  <g
     inkscape:label="レイヤー 1"
     inkscape:groupmode="layer"
     id="layer1"
     transform="translate(0,-164.70832)">
    <rect
       style="fill:#1a182d;fill-opacity:1;stroke:none;stroke-width:2.64583325;stroke-miterlimit:4;stroke-dasharray:none;stroke-opacity:1"
       id="rect39"
       width="132.29167"
       height="132.29167"
       x="0"
       y="164.70831" />
    <path
       style="fill:#ffffff;fill-opacity:1;stroke:none;stroke-width:3.09488249;stroke-miterlimit:4;stroke-dasharray:none;stroke-opacity:1"
       d="m 92.934891,171.3229 c -3.287819,0 -5.953125,2.66531 -5.953125,5.95312 0.0034,1.44516 0.532391,2.83974 1.488281,3.92361 v 28.90928 c -0.541115,0.39865 -1.025726,0.8688 -1.440608,1.39759 H 57.207421 c -1.403499,-1.87134 -3.605235,-2.97383 -5.944403,-2.97657 -4.109775,0 -7.441406,3.33163 -7.441406,7.44141 0.0037,2.33814 1.106043,4.53861 2.976563,5.9415 v 29.79759 c -0.558169,0.41778 -1.054855,0.91193 -1.475492,1.46793 H 16.488398 c -1.083114,-0.95522 -2.476535,-1.48416 -3.92069,-1.48827 -3.2878201,0 -5.9531248,2.66531 -5.9531248,5.95312 0,3.28782 2.6653047,5.95313 5.9531248,5.95313 1.445157,-0.003 2.839731,-0.5324 3.923597,-1.48829 h 28.838936 c 1.401041,1.86808 3.597703,2.97017 5.932777,2.97657 2.337736,-0.004 4.537694,-1.10637 5.940334,-2.97657 h 24.736861 c 1.217927,2.92483 3.568533,5.24866 6.529834,6.45542 v 11.94811 c -0.955229,1.08311 -1.484167,2.47654 -1.488281,3.92069 0,3.28782 2.665306,5.95313 5.953125,5.95313 3.287818,0 5.953124,-2.66531 5.953124,-5.95313 -0.0034,-1.44515 -0.532394,-2.83972 -1.488281,-3.92359 v -11.85102 c 3.066286,-1.17797 5.509216,-3.54525 6.758886,-6.54961 h 11.64464 c 1.08312,0.95523 2.47653,1.48417 3.92069,1.48829 3.28783,0 5.95313,-2.66531 5.95313,-5.95313 0,-3.28781 -2.6653,-5.95312 -5.95313,-5.95312 -1.44515,0.003 -2.83972,0.53238 -3.92359,1.48827 h -11.60685 c -1.24083,-3.03891 -3.69976,-5.43598 -6.793776,-6.62285 v -24.58222 c 1.84435,-1.40282 2.929946,-3.58474 2.936446,-5.90196 -0.004,-2.32008 -1.089826,-4.50555 -2.936446,-5.91011 v -28.96451 c 0.95523,-1.08311 1.484168,-2.47653 1.488281,-3.92069 0,-3.28781 -2.665306,-5.95312 -5.953124,-5.95312 z M 57.204517,220.43618 H 86.88526 c 0.443815,0.61164 0.978205,1.1521 1.584787,1.60281 v 24.60256 c -2.990784,1.21785 -5.357827,3.57442 -6.565876,6.53681 H 57.195795 c -0.417776,-0.55816 -0.911918,-1.05485 -1.467933,-1.47549 v -29.78713 c 0.559381,-0.42126 1.056503,-0.91935 1.476655,-1.47956 z m 35.787348,29.78539 c 4.171406,0 7.553005,3.38603 7.553025,7.56292 -2e-5,4.17687 -3.381619,7.5629 -7.553025,7.5629 -4.171405,0 -7.553003,-3.38603 -7.553027,-7.5629 2.4e-5,-4.17689 3.381622,-7.56292 7.553027,-7.56292 z"
       id="rect14"
       inkscape:connector-curvature="0"
       sodipodi:nodetypes="sccccccccccccscccccccccsccccccscccccccccscccccccccccccc" />
  </g>
</svg>
